<svg xmlns="http://www.w3.org/2000/svg" xmlns:xlink="http://www.w3.org/1999/xlink" width="120" version="1.1" viewBox="0.55 58.04 194.16 90.28">
<g id="surface1">
<path style=" stroke:none;fill-rule:evenodd;fill:rgb(10.588235%,9.803922%,9.411765%);fill-opacity:1;" d="M 28.707031 91.582031 L 42.5 58.035156 L 45.417969 58.035156 L 59.183594 91.582031 L 45.042969 91.582031 L 39.988281 79.175781 L 39.964844 79.175781 L 34.917969 91.582031 Z M 163.488281 91.582031 L 143 91.582031 C 141.050781 88.410156 140.078125 85.175781 140.078125 81.871094 C 140.078125 74.949219 142.234375 69.285156 146.523438 64.890625 C 150.808594 60.5 156.34375 58.292969 163.125 58.292969 C 168.132812 58.335938 172.949219 59.523438 177.578125 61.835938 C 178.929688 62.535156 180.300781 62.707031 181.695312 62.324219 C 183.070312 61.964844 184.082031 61.175781 184.695312 59.96875 L 185.5625 58.292969 L 188.625 58.292969 L 191.285156 85.921875 L 188.246094 85.921875 C 186.785156 79.324219 183.976562 73.972656 179.773438 69.898438 C 175.546875 65.804688 170.773438 63.765625 165.429688 63.765625 C 161.710938 63.765625 158.753906 64.976562 156.554688 67.417969 C 154.359375 69.835938 153.261719 73.148438 153.261719 77.285156 C 153.261719 80.320312 154.484375 83.226562 156.914062 86.027344 C 158.464844 87.808594 160.660156 89.660156 163.488281 91.582031 Z M 117.515625 91.582031 L 104.082031 91.582031 L 104.082031 79.300781 C 104.082031 72.59375 103.425781 68.285156 102.117188 66.398438 C 100.785156 64.507812 97.703125 63.425781 92.800781 63.128906 L 92.800781 60.074219 L 128.796875 60.074219 L 128.796875 63.128906 C 123.917969 63.425781 120.8125 64.507812 119.480469 66.398438 C 118.171875 68.285156 117.515625 72.59375 117.515625 79.300781 Z M 117.515625 91.582031 "/>
<path style=" stroke:none;fill-rule:evenodd;fill:rgb(10.588235%,9.803922%,9.411765%);fill-opacity:1;" d="M 12.121094 131.910156 L 18.035156 117.535156 L 24.324219 117.535156 L 19.074219 130.636719 C 17.296875 134.988281 16.960938 138.152344 18.078125 140.125 C 19.199219 142.121094 21.925781 143.222656 26.296875 143.476562 L 26.296875 146.535156 L 0.546875 146.535156 L 0.546875 143.476562 C 3.652344 142.988281 5.871094 142.054688 7.222656 140.675781 C 8.550781 139.339844 10.179688 136.433594 12.121094 131.910156 Z M 69.839844 117.535156 L 76.679688 134.203125 C 78.246094 138.023438 79.679688 140.464844 80.949219 141.546875 C 82.238281 142.628906 84.414062 143.265625 87.519531 143.476562 L 87.519531 146.535156 L 55.832031 146.535156 L 55.832031 143.476562 C 59.550781 143.476562 61.894531 142.757812 62.886719 141.3125 C 63.878906 139.871094 63.691406 137.492188 62.335938 134.140625 L 55.566406 117.535156 Z M 104.082031 117.535156 L 117.515625 117.535156 L 117.515625 127.304688 C 117.515625 134.011719 118.171875 138.320312 119.480469 140.210938 C 120.8125 142.097656 123.917969 143.179688 128.796875 143.476562 L 128.796875 146.535156 L 92.800781 146.535156 L 92.800781 143.476562 C 97.703125 143.179688 100.785156 142.078125 102.117188 140.1875 C 103.425781 138.320312 104.082031 134.011719 104.082031 127.304688 Z M 175.941406 117.535156 L 192.570312 117.535156 C 193.152344 119.574219 193.441406 121.730469 193.441406 123.996094 C 193.441406 131.464844 190.886719 137.386719 185.792969 141.757812 C 180.703125 146.128906 173.816406 148.316406 165.113281 148.316406 C 160.359375 148.316406 155.753906 147.128906 151.296875 144.773438 C 149.457031 143.734375 147.894531 143.394531 146.628906 143.734375 C 145.382812 144.09375 144.410156 145.113281 143.753906 146.808594 L 143.3125 147.933594 L 140.207031 147.933594 L 136.65625 119.792969 L 139.699219 119.792969 C 141.640625 126.5625 144.980469 132.101562 149.710938 136.390625 C 154.421875 140.699219 159.535156 142.839844 165.027344 142.839844 C 169.824219 142.839844 173.625 141.417969 176.433594 138.574219 C 179.246094 135.730469 180.640625 131.871094 180.640625 127.007812 C 180.640625 123.933594 179.140625 120.832031 176.117188 117.714844 Z M 175.941406 117.535156 "/>
<path style=" stroke:none;fill-rule:evenodd;fill:rgb(10.588235%,9.803922%,9.411765%);fill-opacity:1;" d="M 31.421875 102.90625 L 30.28125 99.738281 L 29.132812 102.90625 Z M 30.933594 97.222656 L 35.234375 109.160156 L 33.683594 109.160156 L 31.890625 104.199219 L 28.664062 104.199219 L 26.839844 109.160156 L 25.277344 109.160156 L 29.636719 97.222656 Z M 45.417969 106.53125 L 46.457031 107.460938 C 45.117188 108.683594 43.648438 109.292969 42.039062 109.292969 C 40.308594 109.292969 38.851562 108.695312 37.65625 107.5 C 36.464844 106.300781 35.871094 104.863281 35.871094 103.191406 C 35.871094 101.53125 36.464844 100.097656 37.65625 98.890625 C 38.851562 97.683594 40.308594 97.082031 42.039062 97.082031 C 43.648438 97.082031 45.117188 97.695312 46.457031 98.925781 L 45.417969 99.855469 C 44.328125 98.886719 43.199219 98.402344 42.039062 98.402344 C 40.773438 98.402344 39.679688 98.867188 38.757812 99.792969 C 37.835938 100.71875 37.375 101.851562 37.375 103.191406 C 37.375 104.539062 37.835938 105.675781 38.757812 106.597656 C 39.679688 107.523438 40.773438 107.984375 42.039062 107.984375 C 43.199219 107.984375 44.328125 107.5 45.417969 106.53125 Z M 54.367188 97.222656 L 54.367188 98.527344 L 49.394531 98.527344 L 49.394531 102.542969 L 54.367188 102.542969 L 54.367188 103.84375 L 49.394531 103.84375 L 49.394531 107.859375 L 54.367188 107.859375 L 54.367188 109.160156 L 47.898438 109.160156 L 47.898438 97.222656 Z M 59.882812 98.527344 L 59.882812 109.160156 L 58.394531 109.160156 L 58.394531 98.527344 L 55.554688 98.527344 L 55.554688 97.222656 L 62.714844 97.222656 L 62.714844 98.527344 Z M 70.367188 97.222656 L 70.367188 98.527344 L 65.398438 98.527344 L 65.398438 102.542969 L 70.367188 102.542969 L 70.367188 103.84375 L 65.398438 103.84375 L 65.398438 107.859375 L 70.367188 107.859375 L 70.367188 109.160156 L 63.902344 109.160156 L 63.902344 97.222656 Z M 81.449219 106.53125 L 82.492188 107.460938 C 81.152344 108.683594 79.679688 109.292969 78.070312 109.292969 C 76.34375 109.292969 74.882812 108.695312 73.691406 107.5 C 72.5 106.300781 71.90625 104.863281 71.90625 103.191406 C 71.90625 101.53125 72.5 100.097656 73.691406 98.890625 C 74.882812 97.683594 76.34375 97.082031 78.070312 97.082031 C 79.679688 97.082031 81.152344 97.695312 82.492188 98.925781 L 81.449219 99.855469 C 80.359375 98.886719 79.234375 98.402344 78.070312 98.402344 C 76.804688 98.402344 75.710938 98.867188 74.792969 99.792969 C 73.867188 100.71875 73.40625 101.851562 73.40625 103.191406 C 73.40625 104.539062 73.867188 105.675781 74.792969 106.597656 C 75.710938 107.523438 76.804688 107.984375 78.070312 107.984375 C 79.234375 107.984375 80.359375 107.5 81.449219 106.53125 Z M 85.28125 103.84375 L 85.28125 109.160156 L 83.785156 109.160156 L 83.785156 97.222656 L 85.28125 97.222656 L 85.28125 102.542969 L 90.160156 102.542969 L 90.160156 97.222656 L 91.652344 97.222656 L 91.652344 109.160156 L 90.160156 109.160156 L 90.160156 103.84375 Z M 99.128906 97.222656 L 99.128906 109.160156 L 97.632812 109.160156 L 97.632812 97.222656 Z M 104.726562 98.527344 L 104.726562 109.160156 L 103.238281 109.160156 L 103.238281 98.527344 L 100.398438 98.527344 L 100.398438 97.222656 L 107.558594 97.222656 L 107.558594 98.527344 Z M 116.234375 102.878906 C 115.382812 102.601562 114.695312 102.199219 114.179688 101.675781 C 113.660156 101.160156 113.402344 100.53125 113.402344 99.792969 C 113.402344 99.074219 113.671875 98.445312 114.207031 97.898438 C 114.742188 97.355469 115.410156 97.082031 116.210938 97.082031 C 117 97.082031 117.671875 97.363281 118.234375 97.921875 C 118.527344 98.210938 118.753906 98.613281 118.917969 99.132812 L 117.582031 99.65625 C 117.417969 99.207031 117.265625 98.917969 117.132812 98.785156 C 116.867188 98.507812 116.558594 98.367188 116.210938 98.367188 C 115.867188 98.367188 115.566406 98.503906 115.300781 98.773438 C 115.03125 99.039062 114.898438 99.382812 114.898438 99.792969 C 114.898438 100.207031 115.035156 100.554688 115.3125 100.839844 C 115.597656 101.117188 115.988281 101.371094 116.484375 101.605469 C 117.429688 101.914062 118.222656 102.386719 118.863281 103.03125 C 119.59375 103.761719 119.957031 104.621094 119.957031 105.617188 C 119.957031 106.617188 119.597656 107.476562 118.875 108.203125 C 118.148438 108.929688 117.261719 109.292969 116.210938 109.292969 C 115.152344 109.292969 114.257812 108.921875 113.527344 108.171875 C 112.953125 107.605469 112.601562 106.863281 112.46875 105.957031 L 113.90625 105.4375 C 113.996094 106.304688 114.238281 106.9375 114.644531 107.335938 C 115.082031 107.777344 115.605469 108 116.210938 108 C 116.820312 108 117.355469 107.769531 117.808594 107.316406 C 118.261719 106.859375 118.488281 106.292969 118.488281 105.617188 C 118.488281 104.945312 118.269531 104.382812 117.824219 103.933594 C 117.367188 103.488281 116.839844 103.136719 116.234375 102.878906 Z M 127.101562 97.058594 C 128.828125 97.058594 130.292969 97.660156 131.488281 98.867188 C 132.6875 100.070312 133.285156 101.507812 133.285156 103.171875 C 133.285156 104.847656 132.6875 106.289062 131.488281 107.492188 C 130.292969 108.691406 128.828125 109.292969 127.101562 109.292969 C 125.378906 109.292969 123.917969 108.691406 122.722656 107.492188 C 121.523438 106.289062 120.925781 104.847656 120.925781 103.171875 C 120.925781 101.507812 121.523438 100.070312 122.722656 98.867188 C 123.917969 97.660156 125.378906 97.058594 127.101562 97.058594 Z M 127.101562 98.367188 C 125.835938 98.367188 124.738281 98.835938 123.8125 99.765625 C 122.890625 100.699219 122.425781 101.832031 122.425781 103.171875 C 122.425781 104.519531 122.890625 105.660156 123.8125 106.589844 C 124.738281 107.519531 125.835938 107.984375 127.101562 107.984375 C 128.371094 107.984375 129.472656 107.519531 130.394531 106.589844 C 131.320312 105.660156 131.78125 104.519531 131.78125 103.171875 C 131.78125 101.832031 131.320312 100.699219 130.394531 99.765625 C 129.472656 98.835938 128.371094 98.367188 127.101562 98.367188 Z M 134.722656 109.160156 L 134.722656 97.222656 L 136.214844 97.222656 L 136.214844 107.859375 L 140.484375 107.859375 L 140.484375 109.160156 Z M 148.222656 97.222656 L 149.71875 97.222656 L 149.71875 105.667969 C 149.589844 106.605469 149.191406 107.410156 148.519531 108.082031 C 147.742188 108.867188 146.785156 109.261719 145.636719 109.261719 C 144.480469 109.261719 143.511719 108.863281 142.722656 108.070312 C 141.9375 107.273438 141.542969 106.335938 141.542969 105.246094 L 141.542969 97.222656 L 143.035156 97.222656 L 143.035156 105.246094 C 143.035156 106.007812 143.296875 106.652344 143.8125 107.171875 C 144.328125 107.695312 144.9375 107.957031 145.636719 107.957031 C 146.332031 107.957031 146.9375 107.695312 147.449219 107.171875 C 147.964844 106.652344 148.222656 106.007812 148.222656 105.246094 Z M 155.234375 98.527344 L 155.234375 109.160156 L 153.75 109.160156 L 153.75 98.527344 L 150.90625 98.527344 L 150.90625 97.222656 L 158.066406 97.222656 L 158.066406 98.527344 Z M 160.835938 97.222656 L 160.835938 109.160156 L 159.335938 109.160156 L 159.335938 97.222656 Z M 168.527344 97.058594 C 170.253906 97.058594 171.71875 97.660156 172.917969 98.867188 C 174.113281 100.070312 174.710938 101.507812 174.710938 103.171875 C 174.710938 104.847656 174.113281 106.289062 172.917969 107.492188 C 171.71875 108.691406 170.253906 109.292969 168.527344 109.292969 C 166.804688 109.292969 165.347656 108.691406 164.148438 107.492188 C 162.949219 106.289062 162.351562 104.847656 162.351562 103.171875 C 162.351562 101.507812 162.949219 100.070312 164.148438 98.867188 C 165.347656 97.660156 166.804688 97.058594 168.527344 97.058594 Z M 168.527344 98.367188 C 167.261719 98.367188 166.167969 98.835938 165.242188 99.765625 C 164.316406 100.699219 163.855469 101.832031 163.855469 103.171875 C 163.855469 104.519531 164.316406 105.660156 165.242188 106.589844 C 166.167969 107.519531 167.261719 107.984375 168.527344 107.984375 C 169.800781 107.984375 170.898438 107.519531 171.824219 106.589844 C 172.746094 105.660156 173.210938 104.519531 173.210938 103.171875 C 173.210938 101.832031 172.746094 100.699219 171.824219 99.765625 C 170.898438 98.835938 169.800781 98.367188 168.527344 98.367188 Z M 177.605469 97.222656 L 184.375 106.761719 L 184.375 97.222656 L 185.867188 97.222656 L 185.867188 109.160156 L 184.214844 109.160156 L 177.621094 99.863281 L 177.621094 109.160156 L 176.125 109.160156 L 176.125 97.222656 Z M 190.988281 102.878906 C 190.132812 102.601562 189.449219 102.199219 188.933594 101.675781 C 188.414062 101.160156 188.15625 100.53125 188.15625 99.792969 C 188.15625 99.074219 188.421875 98.445312 188.960938 97.898438 C 189.496094 97.355469 190.164062 97.082031 190.960938 97.082031 C 191.753906 97.082031 192.425781 97.363281 192.984375 97.921875 C 193.28125 98.210938 193.507812 98.613281 193.671875 99.132812 L 192.335938 99.65625 C 192.167969 99.207031 192.019531 98.917969 191.886719 98.785156 C 191.621094 98.507812 191.308594 98.367188 190.960938 98.367188 C 190.621094 98.367188 190.316406 98.503906 190.050781 98.773438 C 189.785156 99.039062 189.648438 99.382812 189.648438 99.792969 C 189.648438 100.207031 189.789062 100.554688 190.0625 100.839844 C 190.351562 101.117188 190.738281 101.371094 191.234375 101.605469 C 192.183594 101.914062 192.976562 102.386719 193.613281 103.03125 C 194.347656 103.761719 194.710938 104.621094 194.710938 105.617188 C 194.710938 106.617188 194.351562 107.476562 193.625 108.203125 C 192.902344 108.929688 192.015625 109.292969 190.960938 109.292969 C 189.90625 109.292969 189.011719 108.921875 188.28125 108.171875 C 187.707031 107.605469 187.355469 106.863281 187.222656 105.957031 L 188.660156 105.4375 C 188.746094 106.304688 188.992188 106.9375 189.394531 107.335938 C 189.835938 107.777344 190.355469 108 190.960938 108 C 191.574219 108 192.105469 107.769531 192.5625 107.316406 C 193.015625 106.859375 193.242188 106.292969 193.242188 105.617188 C 193.242188 104.945312 193.019531 104.382812 192.574219 103.933594 C 192.121094 103.488281 191.59375 103.136719 190.988281 102.878906 Z M 190.988281 102.878906 "/>
</g>
</svg>