<?xml version="1.0" encoding="UTF-8"?>
<svg xmlns="http://www.w3.org/2000/svg" xmlns:xlink="http://www.w3.org/1999/xlink" width="180px" height="84px" viewBox="0 0 112 84" version="1.1">
<g id="surface1">
<path style=" stroke:none;fill-rule:evenodd;fill:white;fill-opacity:1;" d="M 16.242188 35.308594 L 24.199219 15.957031 L 25.882812 15.957031 L 33.824219 35.308594 L 25.664062 35.308594 L 22.75 28.152344 L 22.734375 28.152344 L 19.824219 35.308594 Z M 93.988281 35.308594 L 82.171875 35.308594 C 81.046875 33.480469 80.484375 31.613281 80.484375 29.707031 C 80.484375 25.714844 81.730469 22.449219 84.203125 19.914062 C 86.675781 17.378906 89.867188 16.105469 93.78125 16.105469 C 96.667969 16.132812 99.449219 16.816406 102.117188 18.152344 C 102.898438 18.554688 103.6875 18.652344 104.492188 18.433594 C 105.285156 18.226562 105.871094 17.769531 106.222656 17.074219 L 106.722656 16.105469 L 108.488281 16.105469 L 110.023438 32.042969 L 108.269531 32.042969 C 107.429688 28.238281 105.808594 25.152344 103.382812 22.800781 C 100.945312 20.441406 98.191406 19.265625 95.109375 19.265625 C 92.964844 19.265625 91.257812 19.960938 89.992188 21.371094 C 88.722656 22.765625 88.089844 24.675781 88.089844 27.0625 C 88.089844 28.8125 88.796875 30.488281 90.199219 32.105469 C 91.09375 33.132812 92.359375 34.199219 93.988281 35.308594 Z M 67.472656 35.308594 L 59.722656 35.308594 L 59.722656 28.226562 C 59.722656 24.355469 59.34375 21.871094 58.589844 20.78125 C 57.820312 19.691406 56.042969 19.066406 53.214844 18.898438 L 53.214844 17.132812 L 73.976562 17.132812 L 73.976562 18.898438 C 71.164062 19.066406 69.371094 19.691406 68.605469 20.78125 C 67.847656 21.871094 67.472656 24.355469 67.472656 28.226562 Z M 67.472656 35.308594 "/>
<path style=" stroke:none;fill-rule:evenodd;fill:white;fill-opacity:1;" d="M 6.675781 58.574219 L 10.085938 50.28125 L 13.714844 50.28125 L 10.6875 57.839844 C 9.660156 60.347656 9.464844 62.171875 10.109375 63.3125 C 10.757812 64.464844 12.332031 65.097656 14.851562 65.246094 L 14.851562 67.007812 L 0 67.007812 L 0 65.246094 C 1.789062 64.964844 3.070312 64.425781 3.847656 63.628906 C 4.613281 62.859375 5.554688 61.183594 6.675781 58.574219 Z M 39.96875 50.28125 L 43.914062 59.894531 C 44.820312 62.097656 45.644531 63.507812 46.378906 64.132812 C 47.121094 64.753906 48.375 65.125 50.167969 65.246094 L 50.167969 67.007812 L 31.890625 67.007812 L 31.890625 65.246094 C 34.035156 65.246094 35.386719 64.832031 35.957031 63.996094 C 36.53125 63.164062 36.421875 61.792969 35.640625 59.859375 L 31.734375 50.28125 Z M 59.722656 50.28125 L 67.472656 50.28125 L 67.472656 55.917969 C 67.472656 59.785156 67.847656 62.269531 68.605469 63.359375 C 69.371094 64.449219 71.164062 65.074219 73.976562 65.246094 L 73.976562 67.007812 L 53.214844 67.007812 L 53.214844 65.246094 C 56.042969 65.074219 57.820312 64.4375 58.589844 63.347656 C 59.34375 62.269531 59.722656 59.785156 59.722656 55.917969 Z M 101.171875 50.28125 L 110.765625 50.28125 C 111.101562 51.457031 111.269531 52.699219 111.269531 54.007812 C 111.269531 58.316406 109.792969 61.730469 106.855469 64.253906 C 103.921875 66.773438 99.949219 68.035156 94.925781 68.035156 C 92.183594 68.035156 89.527344 67.351562 86.957031 65.992188 C 85.894531 65.394531 84.996094 65.199219 84.265625 65.394531 C 83.546875 65.601562 82.984375 66.1875 82.605469 67.167969 L 82.351562 67.816406 L 80.558594 67.816406 L 78.511719 51.582031 L 80.265625 51.582031 C 81.386719 55.488281 83.3125 58.683594 86.042969 61.15625 C 88.761719 63.644531 91.710938 64.878906 94.878906 64.878906 C 97.644531 64.878906 99.835938 64.058594 101.457031 62.417969 C 103.078125 60.777344 103.882812 58.550781 103.882812 55.746094 C 103.882812 53.972656 103.019531 52.183594 101.273438 50.382812 Z M 101.171875 50.28125 "/>
<path style=" stroke:none;fill-rule:evenodd;fill:white;fill-opacity:1;" d="M 17.808594 41.84375 L 17.148438 40.015625 L 16.488281 41.84375 Z M 17.527344 38.5625 L 20.007812 45.449219 L 19.113281 45.449219 L 18.078125 42.589844 L 16.21875 42.589844 L 15.164062 45.449219 L 14.265625 45.449219 L 16.777344 38.5625 Z M 25.882812 43.933594 L 26.480469 44.46875 C 25.707031 45.175781 24.859375 45.527344 23.933594 45.527344 C 22.933594 45.527344 22.09375 45.179688 21.40625 44.492188 C 20.71875 43.800781 20.375 42.972656 20.375 42.007812 C 20.375 41.050781 20.71875 40.222656 21.40625 39.527344 C 22.09375 38.828125 22.933594 38.484375 23.933594 38.484375 C 24.859375 38.484375 25.707031 38.835938 26.480469 39.546875 L 25.882812 40.082031 C 25.253906 39.523438 24.601562 39.242188 23.933594 39.242188 C 23.203125 39.242188 22.570312 39.511719 22.039062 40.046875 C 21.507812 40.582031 21.242188 41.234375 21.242188 42.007812 C 21.242188 42.785156 21.507812 43.441406 22.039062 43.972656 C 22.570312 44.503906 23.203125 44.769531 23.933594 44.769531 C 24.601562 44.769531 25.253906 44.492188 25.882812 43.933594 Z M 31.042969 38.5625 L 31.042969 39.316406 L 28.175781 39.316406 L 28.175781 41.632812 L 31.042969 41.632812 L 31.042969 42.382812 L 28.175781 42.382812 L 28.175781 44.699219 L 31.042969 44.699219 L 31.042969 45.449219 L 27.3125 45.449219 L 27.3125 38.5625 Z M 34.226562 39.316406 L 34.226562 45.449219 L 33.367188 45.449219 L 33.367188 39.316406 L 31.730469 39.316406 L 31.730469 38.5625 L 35.859375 38.5625 L 35.859375 39.316406 Z M 40.273438 38.5625 L 40.273438 39.316406 L 37.40625 39.316406 L 37.40625 41.632812 L 40.273438 41.632812 L 40.273438 42.382812 L 37.40625 42.382812 L 37.40625 44.699219 L 40.273438 44.699219 L 40.273438 45.449219 L 36.542969 45.449219 L 36.542969 38.5625 Z M 46.667969 43.933594 L 47.269531 44.46875 C 46.496094 45.175781 45.644531 45.527344 44.71875 45.527344 C 43.722656 45.527344 42.878906 45.179688 42.191406 44.492188 C 41.503906 43.800781 41.160156 42.972656 41.160156 42.007812 C 41.160156 41.050781 41.503906 40.222656 42.191406 39.527344 C 42.878906 38.828125 43.722656 38.484375 44.71875 38.484375 C 45.644531 38.484375 46.496094 38.835938 47.269531 39.546875 L 46.667969 40.082031 C 46.039062 39.523438 45.386719 39.242188 44.71875 39.242188 C 43.988281 39.242188 43.355469 39.511719 42.828125 40.046875 C 42.292969 40.582031 42.027344 41.234375 42.027344 42.007812 C 42.027344 42.785156 42.292969 43.441406 42.828125 43.972656 C 43.355469 44.503906 43.988281 44.769531 44.71875 44.769531 C 45.386719 44.769531 46.039062 44.492188 46.667969 43.933594 Z M 48.875 42.382812 L 48.875 45.449219 L 48.015625 45.449219 L 48.015625 38.5625 L 48.875 38.5625 L 48.875 41.632812 L 51.691406 41.632812 L 51.691406 38.5625 L 52.550781 38.5625 L 52.550781 45.449219 L 51.691406 45.449219 L 51.691406 42.382812 Z M 56.863281 38.5625 L 56.863281 45.449219 L 56 45.449219 L 56 38.5625 Z M 60.09375 39.316406 L 60.09375 45.449219 L 59.234375 45.449219 L 59.234375 39.316406 L 57.597656 39.316406 L 57.597656 38.5625 L 61.726562 38.5625 L 61.726562 39.316406 Z M 66.730469 41.828125 C 66.242188 41.667969 65.84375 41.433594 65.546875 41.132812 C 65.246094 40.835938 65.097656 40.472656 65.097656 40.046875 C 65.097656 39.632812 65.253906 39.269531 65.5625 38.953125 C 65.871094 38.640625 66.257812 38.484375 66.71875 38.484375 C 67.171875 38.484375 67.5625 38.644531 67.886719 38.96875 C 68.054688 39.132812 68.183594 39.367188 68.28125 39.664062 L 67.507812 39.96875 C 67.414062 39.707031 67.328125 39.542969 67.25 39.464844 C 67.097656 39.304688 66.917969 39.222656 66.71875 39.222656 C 66.519531 39.222656 66.347656 39.300781 66.191406 39.457031 C 66.039062 39.609375 65.960938 39.808594 65.960938 40.046875 C 65.960938 40.285156 66.039062 40.484375 66.199219 40.648438 C 66.363281 40.808594 66.589844 40.957031 66.875 41.089844 C 67.421875 41.269531 67.878906 41.542969 68.25 41.914062 C 68.667969 42.335938 68.878906 42.832031 68.878906 43.40625 C 68.878906 43.984375 68.671875 44.476562 68.253906 44.898438 C 67.835938 45.316406 67.324219 45.527344 66.71875 45.527344 C 66.109375 45.527344 65.589844 45.3125 65.171875 44.878906 C 64.839844 44.554688 64.636719 44.125 64.558594 43.601562 L 65.390625 43.300781 C 65.441406 43.800781 65.582031 44.167969 65.816406 44.398438 C 66.066406 44.652344 66.367188 44.78125 66.71875 44.78125 C 67.070312 44.78125 67.378906 44.648438 67.640625 44.386719 C 67.902344 44.121094 68.03125 43.796875 68.03125 43.40625 C 68.03125 43.019531 67.90625 42.695312 67.648438 42.433594 C 67.386719 42.179688 67.082031 41.976562 66.730469 41.828125 Z M 73 38.46875 C 73.996094 38.46875 74.839844 38.816406 75.53125 39.511719 C 76.222656 40.207031 76.566406 41.035156 76.566406 41.996094 C 76.566406 42.960938 76.222656 43.792969 75.53125 44.488281 C 74.839844 45.179688 73.996094 45.527344 73 45.527344 C 72.007812 45.527344 71.164062 45.179688 70.472656 44.488281 C 69.78125 43.792969 69.4375 42.960938 69.4375 41.996094 C 69.4375 41.035156 69.78125 40.207031 70.472656 39.511719 C 71.164062 38.816406 72.007812 38.46875 73 38.46875 Z M 73 39.222656 C 72.269531 39.222656 71.636719 39.496094 71.101562 40.03125 C 70.570312 40.570312 70.304688 41.222656 70.304688 41.996094 C 70.304688 42.773438 70.570312 43.429688 71.101562 43.96875 C 71.636719 44.503906 72.269531 44.769531 73 44.769531 C 73.734375 44.769531 74.367188 44.503906 74.898438 43.96875 C 75.433594 43.429688 75.699219 42.773438 75.699219 41.996094 C 75.699219 41.222656 75.433594 40.570312 74.898438 40.03125 C 74.367188 39.496094 73.734375 39.222656 73 39.222656 Z M 77.398438 45.449219 L 77.398438 38.5625 L 78.257812 38.5625 L 78.257812 44.699219 L 80.71875 44.699219 L 80.71875 45.449219 Z M 85.183594 38.5625 L 86.046875 38.5625 L 86.046875 43.433594 C 85.972656 43.976562 85.742188 44.441406 85.355469 44.828125 C 84.90625 45.28125 84.355469 45.507812 83.691406 45.507812 C 83.027344 45.507812 82.464844 45.277344 82.011719 44.820312 C 81.558594 44.359375 81.332031 43.820312 81.332031 43.191406 L 81.332031 38.5625 L 82.191406 38.5625 L 82.191406 43.191406 C 82.191406 43.632812 82.34375 44.003906 82.640625 44.300781 C 82.9375 44.605469 83.289062 44.753906 83.691406 44.753906 C 84.09375 44.753906 84.441406 44.605469 84.738281 44.300781 C 85.035156 44.003906 85.183594 43.632812 85.183594 43.191406 Z M 89.230469 39.316406 L 89.230469 45.449219 L 88.371094 45.449219 L 88.371094 39.316406 L 86.730469 39.316406 L 86.730469 38.5625 L 90.863281 38.5625 L 90.863281 39.316406 Z M 92.460938 38.5625 L 92.460938 45.449219 L 91.59375 45.449219 L 91.59375 38.5625 Z M 96.898438 38.46875 C 97.894531 38.46875 98.738281 38.816406 99.429688 39.511719 C 100.117188 40.207031 100.464844 41.035156 100.464844 41.996094 C 100.464844 42.960938 100.117188 43.792969 99.429688 44.488281 C 98.738281 45.179688 97.894531 45.527344 96.898438 45.527344 C 95.902344 45.527344 95.0625 45.179688 94.371094 44.488281 C 93.679688 43.792969 93.335938 42.960938 93.335938 41.996094 C 93.335938 41.035156 93.679688 40.207031 94.371094 39.511719 C 95.0625 38.816406 95.902344 38.46875 96.898438 38.46875 Z M 96.898438 39.222656 C 96.167969 39.222656 95.535156 39.496094 95 40.03125 C 94.46875 40.570312 94.203125 41.222656 94.203125 41.996094 C 94.203125 42.773438 94.46875 43.429688 95 43.96875 C 95.535156 44.503906 96.167969 44.769531 96.898438 44.769531 C 97.632812 44.769531 98.265625 44.503906 98.796875 43.96875 C 99.332031 43.429688 99.597656 42.773438 99.597656 41.996094 C 99.597656 41.222656 99.332031 40.570312 98.796875 40.03125 C 98.265625 39.496094 97.632812 39.222656 96.898438 39.222656 Z M 102.132812 38.5625 L 106.039062 44.066406 L 106.039062 38.5625 L 106.898438 38.5625 L 106.898438 45.449219 L 105.945312 45.449219 L 102.140625 40.085938 L 102.140625 45.449219 L 101.28125 45.449219 L 101.28125 38.5625 Z M 109.851562 41.828125 C 109.359375 41.667969 108.964844 41.433594 108.667969 41.132812 C 108.367188 40.835938 108.21875 40.472656 108.21875 40.046875 C 108.21875 39.632812 108.371094 39.269531 108.683594 38.953125 C 108.992188 38.640625 109.378906 38.484375 109.835938 38.484375 C 110.292969 38.484375 110.683594 38.644531 111.003906 38.96875 C 111.175781 39.132812 111.304688 39.367188 111.402344 39.664062 L 110.628906 39.96875 C 110.535156 39.707031 110.449219 39.542969 110.371094 39.464844 C 110.21875 39.304688 110.039062 39.222656 109.835938 39.222656 C 109.640625 39.222656 109.464844 39.300781 109.3125 39.457031 C 109.160156 39.609375 109.082031 39.808594 109.082031 40.046875 C 109.082031 40.285156 109.160156 40.484375 109.320312 40.648438 C 109.484375 40.808594 109.707031 40.957031 109.996094 41.089844 C 110.542969 41.269531 111 41.542969 111.367188 41.914062 C 111.789062 42.335938 112 42.832031 112 43.40625 C 112 43.984375 111.792969 44.476562 111.375 44.898438 C 110.957031 45.316406 110.445312 45.527344 109.835938 45.527344 C 109.230469 45.527344 108.714844 45.3125 108.292969 44.878906 C 107.960938 44.554688 107.757812 44.125 107.679688 43.601562 L 108.511719 43.300781 C 108.558594 43.800781 108.703125 44.167969 108.933594 44.398438 C 109.1875 44.652344 109.488281 44.78125 109.835938 44.78125 C 110.191406 44.78125 110.496094 44.648438 110.761719 44.386719 C 111.023438 44.121094 111.152344 43.796875 111.152344 43.40625 C 111.152344 43.019531 111.023438 42.695312 110.769531 42.433594 C 110.507812 42.179688 110.203125 41.976562 109.851562 41.828125 Z M 109.851562 41.828125 "/>
</g>
</svg>
