<?xml version="1.0" encoding="UTF-8"?>
<svg xmlns="http://www.w3.org/2000/svg" xmlns:xlink="http://www.w3.org/1999/xlink" width="64px" height="30px" viewBox="0 0 40 30" version="1.1" >
<g id="surface1">
<path style=" stroke:none;fill-rule:evenodd;fill:white;fill-opacity:1;" d="M 5.800781 12.609375 L 8.640625 5.699219 L 9.242188 5.699219 L 12.078125 12.609375 L 9.167969 12.609375 L 8.125 10.054688 L 8.121094 10.054688 L 7.082031 12.609375 Z M 33.566406 12.609375 L 29.347656 12.609375 C 28.945312 11.957031 28.746094 11.289062 28.746094 10.609375 C 28.746094 9.183594 29.1875 8.015625 30.074219 7.113281 C 30.957031 6.207031 32.097656 5.753906 33.492188 5.753906 C 34.523438 5.761719 35.515625 6.007812 36.46875 6.484375 C 36.75 6.625 37.03125 6.660156 37.320312 6.582031 C 37.601562 6.507812 37.808594 6.347656 37.9375 6.097656 L 38.117188 5.753906 L 38.746094 5.753906 L 39.292969 11.445312 L 38.667969 11.445312 C 38.367188 10.085938 37.789062 8.984375 36.921875 8.144531 C 36.050781 7.300781 35.070312 6.878906 33.96875 6.878906 C 33.203125 6.878906 32.59375 7.128906 32.140625 7.632812 C 31.6875 8.128906 31.460938 8.8125 31.460938 9.664062 C 31.460938 10.289062 31.714844 10.890625 32.214844 11.464844 C 32.53125 11.832031 32.984375 12.214844 33.566406 12.609375 Z M 24.097656 12.609375 L 21.328125 12.609375 L 21.328125 10.082031 C 21.328125 8.699219 21.195312 7.8125 20.925781 7.421875 C 20.648438 7.03125 20.015625 6.808594 19.003906 6.75 L 19.003906 6.121094 L 26.421875 6.121094 L 26.421875 6.75 C 25.414062 6.808594 24.777344 7.03125 24.5 7.421875 C 24.230469 7.8125 24.097656 8.699219 24.097656 10.082031 Z M 24.097656 12.609375 "/>
<path style=" stroke:none;fill-rule:evenodd;fill:white;fill-opacity:1;" d="M 2.382812 20.917969 L 3.601562 17.957031 L 4.898438 17.957031 L 3.816406 20.65625 C 3.449219 21.554688 3.382812 22.203125 3.609375 22.609375 C 3.84375 23.023438 4.402344 23.25 5.304688 23.300781 L 5.304688 23.933594 L 0 23.933594 L 0 23.300781 C 0.640625 23.199219 1.097656 23.007812 1.375 22.726562 C 1.648438 22.449219 1.984375 21.851562 2.382812 20.917969 Z M 14.273438 17.957031 L 15.683594 21.390625 C 16.007812 22.179688 16.300781 22.679688 16.5625 22.902344 C 16.828125 23.128906 17.277344 23.257812 17.917969 23.300781 L 17.917969 23.933594 L 11.390625 23.933594 L 11.390625 23.300781 C 12.15625 23.300781 12.636719 23.152344 12.84375 22.855469 C 13.046875 22.558594 13.007812 22.070312 12.730469 21.378906 L 11.335938 17.957031 Z M 21.328125 17.957031 L 24.097656 17.957031 L 24.097656 19.96875 C 24.097656 21.351562 24.230469 22.238281 24.5 22.628906 C 24.777344 23.019531 25.414062 23.242188 26.421875 23.300781 L 26.421875 23.933594 L 19.003906 23.933594 L 19.003906 23.300781 C 20.015625 23.242188 20.648438 23.011719 20.925781 22.625 C 21.195312 22.238281 21.328125 21.351562 21.328125 19.96875 Z M 36.132812 17.957031 L 39.558594 17.957031 C 39.679688 18.378906 39.738281 18.820312 39.738281 19.289062 C 39.738281 20.828125 39.210938 22.046875 38.164062 22.949219 C 37.113281 23.847656 35.695312 24.296875 33.902344 24.296875 C 32.921875 24.296875 31.972656 24.054688 31.054688 23.570312 C 30.675781 23.355469 30.355469 23.285156 30.09375 23.355469 C 29.835938 23.429688 29.636719 23.640625 29.503906 23.988281 L 29.410156 24.21875 L 28.773438 24.21875 L 28.039062 18.421875 L 28.667969 18.421875 C 29.066406 19.816406 29.753906 20.957031 30.730469 21.84375 C 31.699219 22.730469 32.753906 23.171875 33.886719 23.171875 C 34.875 23.171875 35.65625 22.878906 36.234375 22.292969 C 36.8125 21.707031 37.101562 20.910156 37.101562 19.910156 C 37.101562 19.277344 36.792969 18.636719 36.167969 17.996094 Z M 36.132812 17.957031 "/>
<path style=" stroke:none;fill-rule:evenodd;fill:white;fill-opacity:1;" d="M 6.359375 14.945312 L 6.125 14.289062 L 5.886719 14.945312 Z M 6.257812 13.773438 L 7.144531 16.230469 L 6.824219 16.230469 L 6.457031 15.210938 L 5.792969 15.210938 L 5.417969 16.230469 L 5.09375 16.230469 L 5.992188 13.773438 Z M 9.242188 15.691406 L 9.457031 15.882812 C 9.179688 16.132812 8.878906 16.257812 8.546875 16.257812 C 8.191406 16.257812 7.890625 16.136719 7.644531 15.890625 C 7.398438 15.644531 7.277344 15.347656 7.277344 15.003906 C 7.277344 14.660156 7.398438 14.363281 7.644531 14.117188 C 7.890625 13.867188 8.191406 13.742188 8.546875 13.742188 C 8.878906 13.742188 9.179688 13.871094 9.457031 14.125 L 9.242188 14.316406 C 9.019531 14.117188 8.785156 14.015625 8.546875 14.015625 C 8.285156 14.015625 8.0625 14.113281 7.871094 14.300781 C 7.679688 14.492188 7.585938 14.726562 7.585938 15.003906 C 7.585938 15.28125 7.679688 15.515625 7.871094 15.703125 C 8.0625 15.894531 8.285156 15.988281 8.546875 15.988281 C 8.785156 15.988281 9.019531 15.890625 9.242188 15.691406 Z M 11.085938 13.773438 L 11.085938 14.042969 L 10.0625 14.042969 L 10.0625 14.867188 L 11.085938 14.867188 L 11.085938 15.136719 L 10.0625 15.136719 L 10.0625 15.964844 L 11.085938 15.964844 L 11.085938 16.230469 L 9.753906 16.230469 L 9.753906 13.773438 Z M 12.222656 14.042969 L 12.222656 16.230469 L 11.917969 16.230469 L 11.917969 14.042969 L 11.332031 14.042969 L 11.332031 13.773438 L 12.808594 13.773438 L 12.808594 14.042969 Z M 14.382812 13.773438 L 14.382812 14.042969 L 13.359375 14.042969 L 13.359375 14.867188 L 14.382812 14.867188 L 14.382812 15.136719 L 13.359375 15.136719 L 13.359375 15.964844 L 14.382812 15.964844 L 14.382812 16.230469 L 13.050781 16.230469 L 13.050781 13.773438 Z M 16.667969 15.691406 L 16.882812 15.882812 C 16.605469 16.132812 16.300781 16.257812 15.96875 16.257812 C 15.613281 16.257812 15.3125 16.136719 15.066406 15.890625 C 14.824219 15.644531 14.699219 15.347656 14.699219 15.003906 C 14.699219 14.660156 14.824219 14.363281 15.066406 14.117188 C 15.3125 13.867188 15.613281 13.742188 15.96875 13.742188 C 16.300781 13.742188 16.605469 13.871094 16.882812 14.125 L 16.667969 14.316406 C 16.441406 14.117188 16.210938 14.015625 15.96875 14.015625 C 15.710938 14.015625 15.484375 14.113281 15.296875 14.300781 C 15.105469 14.492188 15.007812 14.726562 15.007812 15.003906 C 15.007812 15.28125 15.105469 15.515625 15.296875 15.703125 C 15.484375 15.894531 15.710938 15.988281 15.96875 15.988281 C 16.210938 15.988281 16.441406 15.890625 16.667969 15.691406 Z M 17.457031 15.136719 L 17.457031 16.230469 L 17.148438 16.230469 L 17.148438 13.773438 L 17.457031 13.773438 L 17.457031 14.867188 L 18.460938 14.867188 L 18.460938 13.773438 L 18.769531 13.773438 L 18.769531 16.230469 L 18.460938 16.230469 L 18.460938 15.136719 Z M 20.308594 13.773438 L 20.308594 16.230469 L 20 16.230469 L 20 13.773438 Z M 21.460938 14.042969 L 21.460938 16.230469 L 21.15625 16.230469 L 21.15625 14.042969 L 20.570312 14.042969 L 20.570312 13.773438 L 22.046875 13.773438 L 22.046875 14.042969 Z M 23.832031 14.9375 C 23.65625 14.878906 23.515625 14.796875 23.410156 14.691406 C 23.300781 14.582031 23.25 14.453125 23.25 14.300781 C 23.25 14.152344 23.304688 14.023438 23.414062 13.910156 C 23.523438 13.800781 23.664062 13.742188 23.828125 13.742188 C 23.992188 13.742188 24.128906 13.800781 24.246094 13.917969 C 24.304688 13.976562 24.351562 14.058594 24.386719 14.167969 L 24.109375 14.273438 C 24.078125 14.179688 24.046875 14.121094 24.019531 14.09375 C 23.964844 14.039062 23.898438 14.007812 23.828125 14.007812 C 23.757812 14.007812 23.695312 14.035156 23.640625 14.09375 C 23.585938 14.148438 23.558594 14.21875 23.558594 14.300781 C 23.558594 14.386719 23.585938 14.460938 23.644531 14.519531 C 23.703125 14.574219 23.78125 14.628906 23.882812 14.675781 C 24.078125 14.738281 24.242188 14.835938 24.375 14.96875 C 24.523438 15.121094 24.601562 15.296875 24.601562 15.503906 C 24.601562 15.707031 24.527344 15.886719 24.375 16.035156 C 24.226562 16.183594 24.042969 16.257812 23.828125 16.257812 C 23.609375 16.257812 23.425781 16.183594 23.273438 16.027344 C 23.15625 15.910156 23.085938 15.757812 23.058594 15.570312 L 23.351562 15.464844 C 23.371094 15.644531 23.421875 15.773438 23.503906 15.855469 C 23.59375 15.945312 23.703125 15.992188 23.828125 15.992188 C 23.953125 15.992188 24.0625 15.945312 24.15625 15.851562 C 24.25 15.757812 24.296875 15.640625 24.296875 15.503906 C 24.296875 15.363281 24.253906 15.246094 24.160156 15.15625 C 24.066406 15.0625 23.957031 14.992188 23.832031 14.9375 Z M 26.070312 13.738281 C 26.425781 13.738281 26.730469 13.863281 26.976562 14.113281 C 27.222656 14.359375 27.34375 14.65625 27.34375 15 C 27.34375 15.34375 27.222656 15.640625 26.976562 15.886719 C 26.730469 16.136719 26.425781 16.257812 26.070312 16.257812 C 25.714844 16.257812 25.414062 16.136719 25.167969 15.886719 C 24.921875 15.640625 24.800781 15.34375 24.800781 15 C 24.800781 14.65625 24.921875 14.359375 25.167969 14.113281 C 25.414062 13.863281 25.714844 13.738281 26.070312 13.738281 Z M 26.070312 14.007812 C 25.8125 14.007812 25.585938 14.105469 25.394531 14.296875 C 25.203125 14.488281 25.109375 14.722656 25.109375 15 C 25.109375 15.277344 25.203125 15.511719 25.394531 15.703125 C 25.585938 15.894531 25.8125 15.988281 26.070312 15.988281 C 26.332031 15.988281 26.558594 15.894531 26.75 15.703125 C 26.941406 15.511719 27.035156 15.277344 27.035156 15 C 27.035156 14.722656 26.941406 14.488281 26.75 14.296875 C 26.558594 14.105469 26.332031 14.007812 26.070312 14.007812 Z M 27.640625 16.230469 L 27.640625 13.773438 L 27.949219 13.773438 L 27.949219 15.964844 L 28.828125 15.964844 L 28.828125 16.230469 Z M 30.421875 13.773438 L 30.730469 13.773438 L 30.730469 15.511719 C 30.703125 15.707031 30.621094 15.871094 30.484375 16.011719 C 30.324219 16.171875 30.125 16.253906 29.890625 16.253906 C 29.652344 16.253906 29.453125 16.171875 29.289062 16.007812 C 29.128906 15.84375 29.046875 15.648438 29.046875 15.425781 L 29.046875 13.773438 L 29.355469 13.773438 L 29.355469 15.425781 C 29.355469 15.582031 29.40625 15.714844 29.515625 15.824219 C 29.621094 15.929688 29.746094 15.984375 29.890625 15.984375 C 30.035156 15.984375 30.15625 15.929688 30.261719 15.824219 C 30.371094 15.714844 30.421875 15.582031 30.421875 15.425781 Z M 31.867188 14.042969 L 31.867188 16.230469 L 31.5625 16.230469 L 31.5625 14.042969 L 30.976562 14.042969 L 30.976562 13.773438 L 32.449219 13.773438 L 32.449219 14.042969 Z M 33.019531 13.773438 L 33.019531 16.230469 L 32.710938 16.230469 L 32.710938 13.773438 Z M 34.605469 13.738281 C 34.960938 13.738281 35.261719 13.863281 35.511719 14.113281 C 35.757812 14.359375 35.878906 14.65625 35.878906 15 C 35.878906 15.34375 35.757812 15.640625 35.511719 15.886719 C 35.261719 16.136719 34.960938 16.257812 34.605469 16.257812 C 34.25 16.257812 33.949219 16.136719 33.703125 15.886719 C 33.457031 15.640625 33.332031 15.34375 33.332031 15 C 33.332031 14.65625 33.457031 14.359375 33.703125 14.113281 C 33.949219 13.863281 34.25 13.738281 34.605469 13.738281 Z M 34.605469 14.007812 C 34.34375 14.007812 34.121094 14.105469 33.929688 14.296875 C 33.738281 14.488281 33.644531 14.722656 33.644531 15 C 33.644531 15.277344 33.738281 15.511719 33.929688 15.703125 C 34.121094 15.894531 34.34375 15.988281 34.605469 15.988281 C 34.867188 15.988281 35.09375 15.894531 35.285156 15.703125 C 35.476562 15.511719 35.570312 15.277344 35.570312 15 C 35.570312 14.722656 35.476562 14.488281 35.285156 14.296875 C 35.09375 14.105469 34.867188 14.007812 34.605469 14.007812 Z M 36.476562 13.773438 L 37.871094 15.738281 L 37.871094 13.773438 L 38.179688 13.773438 L 38.179688 16.230469 L 37.835938 16.230469 L 36.480469 14.316406 L 36.480469 16.230469 L 36.171875 16.230469 L 36.171875 13.773438 Z M 39.234375 14.9375 C 39.058594 14.878906 38.917969 14.796875 38.808594 14.691406 C 38.703125 14.582031 38.648438 14.453125 38.648438 14.300781 C 38.648438 14.152344 38.703125 14.023438 38.816406 13.910156 C 38.925781 13.800781 39.0625 13.742188 39.226562 13.742188 C 39.390625 13.742188 39.53125 13.800781 39.644531 13.917969 C 39.707031 13.976562 39.753906 14.058594 39.785156 14.167969 L 39.511719 14.273438 C 39.476562 14.179688 39.445312 14.121094 39.417969 14.09375 C 39.363281 14.039062 39.300781 14.007812 39.226562 14.007812 C 39.15625 14.007812 39.09375 14.035156 39.039062 14.09375 C 38.984375 14.148438 38.957031 14.21875 38.957031 14.300781 C 38.957031 14.386719 38.984375 14.460938 39.042969 14.519531 C 39.101562 14.574219 39.183594 14.628906 39.285156 14.675781 C 39.480469 14.738281 39.644531 14.835938 39.773438 14.96875 C 39.925781 15.121094 40 15.296875 40 15.503906 C 40 15.707031 39.925781 15.886719 39.777344 16.035156 C 39.628906 16.183594 39.445312 16.257812 39.226562 16.257812 C 39.011719 16.257812 38.824219 16.183594 38.675781 16.027344 C 38.558594 15.910156 38.484375 15.757812 38.457031 15.570312 L 38.753906 15.464844 C 38.769531 15.644531 38.820312 15.773438 38.90625 15.855469 C 38.996094 15.945312 39.101562 15.992188 39.226562 15.992188 C 39.355469 15.992188 39.464844 15.945312 39.558594 15.851562 C 39.652344 15.757812 39.699219 15.640625 39.699219 15.503906 C 39.699219 15.363281 39.652344 15.246094 39.558594 15.15625 C 39.464844 15.0625 39.359375 14.992188 39.234375 14.9375 Z M 39.234375 14.9375 "/>
</g>
</svg>
